<svg width="24" height="24" viewBox="0 0 24 24" fill="none" xmlns="http://www.w3.org/2000/svg">
<path fill-rule="evenodd" clip-rule="evenodd" d="M16.0001 5.99999C15.2044 5.99999 14.4413 6.31606 13.8787 6.87867C13.3161 7.44128 13.0001 8.20434 13.0001 8.99999C13.0001 9.79564 13.3161 10.5587 13.8787 11.1213C14.4413 11.6839 15.2044 12 16.0001 12C16.7957 12 17.5588 11.6839 18.1214 11.1213C18.684 10.5587 19.0001 9.79564 19.0001 8.99999C19.0001 8.20434 18.684 7.44128 18.1214 6.87867C17.5588 6.31606 16.7957 5.99999 16.0001 5.99999ZM11.0001 8.99999C11.0001 8.18495 11.1993 7.38226 11.5805 6.66183C11.9616 5.9414 12.5131 5.32506 13.1869 4.86649C13.8607 4.40793 14.6364 4.12103 15.4464 4.03078C16.2565 3.94053 17.0763 4.04967 17.8345 4.3487C18.5927 4.64772 19.2663 5.12756 19.7967 5.74644C20.327 6.36532 20.6981 7.10447 20.8774 7.89952C21.0568 8.69458 21.0391 9.52144 20.8259 10.3081C20.6127 11.0947 20.2104 11.8174 19.6541 12.413C21.3505 12.9649 22.8172 14.0617 23.8261 15.533C23.9668 15.7522 24.0164 16.0176 23.9645 16.2728C23.9125 16.528 23.763 16.7529 23.5478 16.8996C23.3326 17.0463 23.0686 17.1032 22.8121 17.0583C22.5555 17.0134 22.3266 16.8701 22.1741 16.659C21.1981 15.227 19.4181 14 17.0001 14C13.1661 14 11.0001 17.074 11.0001 19C11.0001 19.2652 10.8947 19.5196 10.7072 19.7071C10.5196 19.8946 10.2653 20 10.0001 20C9.73484 20 9.48049 19.8946 9.29295 19.7071C9.10542 19.5196 9.00006 19.2652 9.00006 19C9.00006 18.308 9.15806 17.57 9.46006 16.843C9.38154 16.7921 9.31051 16.7305 9.24906 16.66C8.42806 15.726 7.15406 15 5.50006 15C3.84606 15 2.57206 15.726 1.75106 16.66C1.57329 16.8488 1.32911 16.9612 1.07005 16.9734C0.810993 16.9856 0.557322 16.8967 0.362572 16.7255C0.167821 16.5542 0.0472247 16.314 0.0262326 16.0555C0.00524061 15.797 0.085495 15.5404 0.250059 15.34C0.840576 14.6679 1.55664 14.1176 2.35806 13.72C1.71777 13.0951 1.27828 12.2935 1.09573 11.4177C0.913177 10.5418 0.995852 9.63142 1.33319 8.80277C1.67054 7.97412 2.24723 7.26484 2.98961 6.76552C3.732 6.26619 4.60638 5.9995 5.50106 5.9995C6.39574 5.9995 7.27012 6.26619 8.0125 6.76552C8.75489 7.26484 9.33158 7.97412 9.66892 8.80277C10.0063 9.63142 10.0889 10.5418 9.90639 11.4177C9.72384 12.2935 9.28435 13.0951 8.64406 13.72C9.33782 14.0643 9.96837 14.5234 10.5091 15.078C11.1882 14.2234 12.0332 13.5148 12.9931 12.995C12.3736 12.5295 11.871 11.9261 11.5251 11.2327C11.1791 10.5393 10.9994 9.77489 11.0001 8.99999ZM3.00006 10.5C3.00006 9.83695 3.26345 9.20106 3.73229 8.73222C4.20113 8.26338 4.83702 7.99999 5.50006 7.99999C6.1631 7.99999 6.79899 8.26338 7.26783 8.73222C7.73667 9.20106 8.00006 9.83695 8.00006 10.5C8.00006 11.163 7.73667 11.7989 7.26783 12.2678C6.79899 12.7366 6.1631 13 5.50006 13C4.83702 13 4.20113 12.7366 3.73229 12.2678C3.26345 11.7989 3.00006 11.163 3.00006 10.5Z" fill="#9A9A9A"/>
</svg>
