<svg width="24" height="24" viewBox="0 0 24 24" fill="none" xmlns="http://www.w3.org/2000/svg">
<path d="M16.2427 6.34319C16.6332 5.95266 17.2664 5.95266 17.6569 6.34319C18.0474 6.73371 18.0474 7.36688 17.6569 7.7574L7.7574 17.6569C7.36688 18.0474 6.73371 18.0474 6.34319 17.6569C5.95266 17.2664 5.95266 16.6332 6.34319 16.2427L16.2427 6.34319Z" fill="black"/>
<path d="M9.87872 9.87872C9.09767 10.6598 7.83134 10.6598 7.05029 9.87872C6.26924 9.09767 6.26924 7.83134 7.05029 7.05029C7.83134 6.26924 9.09767 6.26924 9.87872 7.05029C10.6598 7.83134 10.6598 9.09767 9.87872 9.87872Z" fill="black"/>
<path d="M14.1214 16.9498C14.9024 17.7308 16.1687 17.7308 16.9498 16.9498C17.7308 16.1687 17.7308 14.9024 16.9498 14.1214C16.1687 13.3403 14.9024 13.3403 14.1214 14.1214C13.3403 14.9024 13.3403 16.1687 14.1214 16.9498Z" fill="black"/>
</svg>
