<svg width="21" height="22" viewBox="0 0 21 22" fill="none" xmlns="http://www.w3.org/2000/svg">
<path fill-rule="evenodd" clip-rule="evenodd" d="M10.5 2.00006C9.60485 2.00006 8.7464 2.31613 8.11347 2.87874C7.48053 3.44135 7.12495 4.20441 7.12495 5.00006H13.875C13.875 4.20441 13.5194 3.44135 12.8864 2.87874C12.2535 2.31613 11.3951 2.00006 10.5 2.00006ZM16.125 5.00006C16.125 3.67398 15.5323 2.40221 14.4774 1.46453C13.4225 0.526845 11.9918 6.10352e-05 10.5 6.10352e-05C9.00811 6.10352e-05 7.57737 0.526845 6.52248 1.46453C5.46759 2.40221 4.87495 3.67398 4.87495 5.00006H2.74308C2.42873 5.00007 2.11788 5.05863 1.83055 5.17197C1.54322 5.2853 1.2858 5.4509 1.07487 5.65807C0.863946 5.86525 0.7042 6.10942 0.605932 6.37484C0.507663 6.64025 0.473052 6.92103 0.50433 7.19906L1.4887 15.9511L0.66633 19.6081C0.60111 19.8981 0.609076 20.1974 0.689656 20.4844C0.770235 20.7714 0.921422 21.0389 1.13232 21.2677C1.34322 21.4964 1.60859 21.6808 1.9093 21.8075C2.21001 21.9341 2.53857 21.9999 2.87133 22.0001H18.1275C18.4603 22 18.789 21.9344 19.0898 21.8078C19.3907 21.6812 19.6562 21.4969 19.8672 21.268C20.0783 21.0392 20.2295 20.7717 20.3102 20.4846C20.3908 20.1976 20.3988 19.8982 20.3336 19.6081L19.5112 15.9511L20.4956 7.19906C20.5269 6.92103 20.4922 6.64025 20.394 6.37484C20.2957 6.10942 20.136 5.86525 19.925 5.65807C19.7141 5.4509 19.4567 5.2853 19.1694 5.17197C18.882 5.05863 18.5712 5.00007 18.2568 5.00006H16.125ZM5.99995 7.00006H2.74308L3.74433 15.9001L3.7612 16.0501L3.72745 16.1961L2.87245 20.0001H18.1275L17.2725 16.1961L17.2387 16.0491L17.2556 15.9011L18.2568 7.00006L19.3762 7.10006L18.2568 7.00006H5.99995V7.00006ZM4.87495 16.0001C4.87495 15.7348 4.99348 15.4805 5.20446 15.293C5.41544 15.1054 5.70159 15.0001 5.99995 15.0001H15C15.2983 15.0001 15.5845 15.1054 15.7954 15.293C16.0064 15.4805 16.125 15.7348 16.125 16.0001C16.125 16.2653 16.0064 16.5196 15.7954 16.7072C15.5845 16.8947 15.2983 17.0001 15 17.0001H5.99995C5.70159 17.0001 5.41544 16.8947 5.20446 16.7072C4.99348 16.5196 4.87495 16.2653 4.87495 16.0001Z" fill="#9A9A9A"/>
</svg>
