<svg width="45" height="45" viewBox="0 0 45 45" fill="none" xmlns="http://www.w3.org/2000/svg">
<rect width="45" height="45" rx="22.5" fill="#574AE2"/>
<path fill-rule="evenodd" clip-rule="evenodd" d="M16 15H30C30.5523 15 31 15.4477 31 16V30C31 30.5523 30.5523 31 30 31H16C15.4477 31 15 30.5523 15 30V16C15 15.4477 15.4477 15 16 15ZM13 16C13 14.3431 14.3431 13 16 13H30C31.6569 13 33 14.3431 33 16V30C33 31.6569 31.6569 33 30 33H16C14.3431 33 13 31.6569 13 30V16ZM23 23C20.2386 23 18 20.3137 18 17H20C20 19.5661 21.6691 21 23 21C24.3309 21 26 19.5661 26 17H28C28 20.3137 25.7614 23 23 23Z" fill="white"/>
</svg>
