<svg width="20" height="20" viewBox="0 0 20 20" fill="none" xmlns="http://www.w3.org/2000/svg">
<path fill-rule="evenodd" clip-rule="evenodd" d="M17 0C18.6569 0 20 1.34315 20 3V17C20 18.6569 18.6569 20 17 20H3C1.34315 20 0 18.6569 0 17V3C0 1.34315 1.34315 0 3 0H17ZM2 17C2 17.5523 2.44772 18 3 18H17C17.5523 18 18 17.5523 18 17V12H14.9C14.4512 14.2109 12.5435 15.8921 10.2256 15.995L10 16C7.65663 16 5.68979 14.3879 5.14797 12.2123L5.10002 12H2V17ZM17 2H3C2.44772 2 2 2.44772 2 3V10H6C6.51284 10 6.93551 10.386 6.99327 10.8834L7 11C7 12.6569 8.34315 14 10 14C11.5977 14 12.9037 12.7511 12.9949 11.1763L13.0067 10.8834C13.0601 10.4243 13.4243 10.0601 13.8834 10.0067L14 10H18V3C18 2.44772 17.5523 2 17 2Z" fill="black"/>
</svg>
